<mxfile host="Electron" agent="Mozilla/5.0 (Windows NT 10.0; Win64; x64) AppleWebKit/537.36 (KHTML, like Gecko) draw.io/25.0.2 Chrome/128.0.6613.186 Electron/32.2.5 Safari/537.36" version="25.0.2">
  <diagram name="Page-1" id="10a91c8b-09ff-31b1-d368-03940ed4cc9e">
    <mxGraphModel dx="3652" dy="1502" grid="1" gridSize="10" guides="1" tooltips="1" connect="1" arrows="1" fold="1" page="1" pageScale="1" pageWidth="1100" pageHeight="850" background="none" math="0" shadow="0">
      <root>
        <mxCell id="0" />
        <mxCell id="1" parent="0" />
        <mxCell id="is-eyad1ezGyat-0Gfr9-1" style="edgeStyle=orthogonalEdgeStyle;rounded=0;orthogonalLoop=1;jettySize=auto;html=1;entryX=0.5;entryY=0;entryDx=0;entryDy=0;" edge="1" parent="1" source="62893188c0fa7362-1" target="62893188c0fa7362-2">
          <mxGeometry relative="1" as="geometry" />
        </mxCell>
        <mxCell id="is-eyad1ezGyat-0Gfr9-2" style="edgeStyle=orthogonalEdgeStyle;rounded=0;orthogonalLoop=1;jettySize=auto;html=1;entryX=0.5;entryY=0;entryDx=0;entryDy=0;" edge="1" parent="1" source="62893188c0fa7362-1" target="62893188c0fa7362-3">
          <mxGeometry relative="1" as="geometry" />
        </mxCell>
        <mxCell id="62893188c0fa7362-1" value="Diane Murphy&lt;div&gt;(President)&lt;/div&gt;" style="whiteSpace=wrap;html=1;rounded=1;shadow=1;labelBackgroundColor=none;strokeWidth=1;fontFamily=Verdana;fontSize=12;align=center;arcSize=18;" parent="1" vertex="1">
          <mxGeometry x="650" y="20" width="120" height="60" as="geometry" />
        </mxCell>
        <mxCell id="is-eyad1ezGyat-0Gfr9-3" style="edgeStyle=orthogonalEdgeStyle;rounded=0;orthogonalLoop=1;jettySize=auto;html=1;exitX=0.5;exitY=1;exitDx=0;exitDy=0;entryX=0.5;entryY=0;entryDx=0;entryDy=0;" edge="1" parent="1" source="62893188c0fa7362-2" target="62893188c0fa7362-8">
          <mxGeometry relative="1" as="geometry" />
        </mxCell>
        <mxCell id="is-eyad1ezGyat-0Gfr9-5" style="edgeStyle=orthogonalEdgeStyle;rounded=0;orthogonalLoop=1;jettySize=auto;html=1;exitX=1;exitY=0.5;exitDx=0;exitDy=0;entryX=0.5;entryY=0;entryDx=0;entryDy=0;" edge="1" parent="1" source="62893188c0fa7362-2" target="62893188c0fa7362-13">
          <mxGeometry relative="1" as="geometry" />
        </mxCell>
        <mxCell id="is-eyad1ezGyat-0Gfr9-54" style="edgeStyle=orthogonalEdgeStyle;rounded=0;orthogonalLoop=1;jettySize=auto;html=1;" edge="1" parent="1" source="62893188c0fa7362-2" target="is-eyad1ezGyat-0Gfr9-22">
          <mxGeometry relative="1" as="geometry" />
        </mxCell>
        <mxCell id="62893188c0fa7362-2" value="&lt;span&gt;Marry Patterson&lt;/span&gt;&lt;div&gt;&lt;span&gt;(VP Sales)&lt;/span&gt;&lt;/div&gt;" style="whiteSpace=wrap;html=1;rounded=1;shadow=1;labelBackgroundColor=none;strokeWidth=1;fontFamily=Verdana;fontSize=12;align=center;" parent="1" vertex="1">
          <mxGeometry x="340" y="100" width="120" height="60" as="geometry" />
        </mxCell>
        <mxCell id="62893188c0fa7362-3" value="&lt;span style=&quot;font-family: sans-serif; font-size: 13.12px; text-align: left; white-space-collapse: preserve; background-color: rgb(248, 249, 250);&quot;&gt;Jeff&lt;/span&gt;&lt;span&gt;&amp;nbsp;&lt;/span&gt;&lt;span style=&quot;font-family: sans-serif; font-size: 13.12px; text-align: left; white-space-collapse: preserve; background-color: rgb(248, 249, 250);&quot;&gt;Firrelli&lt;/span&gt;&lt;div&gt;&lt;span&gt;(VP&amp;nbsp;&lt;/span&gt;&lt;span style=&quot;background-color: rgb(248, 249, 250); font-family: sans-serif; font-size: 13.12px; text-align: left; white-space-collapse: preserve;&quot;&gt;Marketing)&lt;/span&gt;&lt;/div&gt;" style="whiteSpace=wrap;html=1;rounded=1;shadow=1;labelBackgroundColor=none;strokeWidth=1;fontFamily=Verdana;fontSize=12;align=center;" parent="1" vertex="1">
          <mxGeometry x="1250" y="180" width="120" height="60" as="geometry" />
        </mxCell>
        <mxCell id="62893188c0fa7362-8" value="&lt;span style=&quot;font-family: sans-serif; font-size: 13.12px; text-align: left; white-space-collapse: preserve; background-color: rgb(248, 249, 250);&quot;&gt;Gerard &lt;/span&gt;&lt;font face=&quot;sans-serif&quot;&gt;&lt;span style=&quot;font-size: 13.12px; white-space-collapse: preserve;&quot;&gt;Bondur&lt;/span&gt;&lt;/font&gt;&lt;div&gt;&lt;font face=&quot;sans-serif&quot;&gt;&lt;span style=&quot;font-size: 13.12px; white-space-collapse: preserve;&quot;&gt;Sale Manager (EMEA)&lt;/span&gt;&lt;br&gt;&lt;/font&gt;&lt;/div&gt;" style="whiteSpace=wrap;html=1;rounded=1;shadow=1;labelBackgroundColor=none;strokeWidth=1;fontFamily=Verdana;fontSize=12;align=center;" parent="1" vertex="1">
          <mxGeometry x="340" y="240" width="120" height="60" as="geometry" />
        </mxCell>
        <mxCell id="is-eyad1ezGyat-0Gfr9-24" style="edgeStyle=orthogonalEdgeStyle;rounded=0;orthogonalLoop=1;jettySize=auto;html=1;entryX=0.5;entryY=0;entryDx=0;entryDy=0;" edge="1" parent="1" source="62893188c0fa7362-12" target="is-eyad1ezGyat-0Gfr9-20">
          <mxGeometry relative="1" as="geometry">
            <Array as="points">
              <mxPoint x="120" y="280" />
            </Array>
          </mxGeometry>
        </mxCell>
        <mxCell id="is-eyad1ezGyat-0Gfr9-25" style="edgeStyle=orthogonalEdgeStyle;rounded=0;orthogonalLoop=1;jettySize=auto;html=1;exitX=0.5;exitY=1;exitDx=0;exitDy=0;" edge="1" parent="1" source="62893188c0fa7362-12" target="is-eyad1ezGyat-0Gfr9-21">
          <mxGeometry relative="1" as="geometry" />
        </mxCell>
        <mxCell id="62893188c0fa7362-12" value="&lt;span style=&quot;font-family: sans-serif; font-size: 13.12px; text-align: left; white-space-collapse: preserve; background-color: rgb(248, 249, 250);&quot;&gt;William &lt;/span&gt;&lt;span style=&quot;font-family: sans-serif; font-size: 13.12px; text-align: left; white-space-collapse: preserve; background-color: rgb(248, 249, 250);&quot;&gt;Patterson&lt;/span&gt;&lt;div&gt;&lt;span style=&quot;font-family: sans-serif; font-size: 13.12px; text-align: left; white-space-collapse: preserve; background-color: rgb(248, 249, 250);&quot;&gt;( &lt;/span&gt;&lt;span style=&quot;background-color: rgb(248, 249, 250); font-family: sans-serif; font-size: 13.12px; text-align: left; white-space-collapse: preserve;&quot;&gt;Sales Manager (APAC))&lt;/span&gt;&lt;/div&gt;" style="whiteSpace=wrap;html=1;rounded=1;shadow=1;labelBackgroundColor=none;strokeWidth=1;fontFamily=Verdana;fontSize=12;align=center;" parent="1" vertex="1">
          <mxGeometry x="-45" y="250" width="120" height="60" as="geometry" />
        </mxCell>
        <mxCell id="62893188c0fa7362-13" value="Anthony&amp;nbsp;Bow&lt;br&gt;&lt;div&gt;(&amp;nbsp;Sales Manager (NA))&lt;/div&gt;" style="whiteSpace=wrap;html=1;rounded=1;shadow=1;labelBackgroundColor=none;strokeWidth=1;fontFamily=Verdana;fontSize=12;align=center;" parent="1" vertex="1">
          <mxGeometry x="760" y="240" width="120" height="60" as="geometry" />
        </mxCell>
        <mxCell id="is-eyad1ezGyat-0Gfr9-4" style="edgeStyle=orthogonalEdgeStyle;rounded=0;orthogonalLoop=1;jettySize=auto;html=1;exitX=0;exitY=0.5;exitDx=0;exitDy=0;entryX=0.436;entryY=0.057;entryDx=0;entryDy=0;entryPerimeter=0;" edge="1" parent="1" source="62893188c0fa7362-2" target="62893188c0fa7362-12">
          <mxGeometry relative="1" as="geometry" />
        </mxCell>
        <mxCell id="is-eyad1ezGyat-0Gfr9-6" value="&lt;span style=&quot;font-family: sans-serif; font-size: 13.12px; text-align: left; white-space-collapse: preserve; background-color: rgb(248, 249, 250);&quot;&gt;Leslie Jennings &lt;/span&gt;&lt;div&gt;&lt;span style=&quot;font-family: sans-serif; font-size: 13.12px; text-align: left; white-space-collapse: preserve; background-color: rgb(248, 249, 250);&quot;&gt;(sales)&lt;/span&gt;&lt;/div&gt;" style="rounded=1;whiteSpace=wrap;html=1;" vertex="1" parent="1">
          <mxGeometry x="719" y="340" width="90" height="50" as="geometry" />
        </mxCell>
        <mxCell id="is-eyad1ezGyat-0Gfr9-8" value="&lt;span style=&quot;font-family: sans-serif; font-size: 13.12px; text-align: left; white-space-collapse: preserve; background-color: rgb(248, 249, 250);&quot;&gt;Leslie Thompson&lt;/span&gt;&lt;div&gt;&lt;span style=&quot;font-family: sans-serif; font-size: 13.12px; text-align: left; white-space-collapse: preserve; background-color: rgb(248, 249, 250);&quot;&gt;(sales)&lt;/span&gt;&lt;span style=&quot;font-family: sans-serif; font-size: 13.12px; text-align: left; white-space-collapse: preserve; background-color: rgb(248, 249, 250);&quot;&gt;&lt;br&gt;&lt;/span&gt;&lt;/div&gt;" style="rounded=1;whiteSpace=wrap;html=1;" vertex="1" parent="1">
          <mxGeometry x="820" y="340" width="90" height="50" as="geometry" />
        </mxCell>
        <mxCell id="is-eyad1ezGyat-0Gfr9-9" value="&lt;span style=&quot;font-family: sans-serif; font-size: 13.12px; text-align: left; white-space-collapse: preserve; background-color: rgb(248, 249, 250);&quot;&gt;Steve Patterson&lt;/span&gt;&lt;div&gt;&lt;span style=&quot;font-family: sans-serif; font-size: 13.12px; text-align: left; white-space-collapse: preserve; background-color: rgb(248, 249, 250);&quot;&gt;(sales)&lt;/span&gt;&lt;span style=&quot;font-family: sans-serif; font-size: 13.12px; text-align: left; white-space-collapse: preserve; background-color: rgb(248, 249, 250);&quot;&gt;&lt;br&gt;&lt;/span&gt;&lt;/div&gt;" style="rounded=1;whiteSpace=wrap;html=1;" vertex="1" parent="1">
          <mxGeometry x="820" y="410" width="90" height="50" as="geometry" />
        </mxCell>
        <mxCell id="is-eyad1ezGyat-0Gfr9-10" value="&lt;span style=&quot;font-family: sans-serif; font-size: 13.12px; text-align: left; white-space-collapse: preserve; background-color: rgb(248, 249, 250);&quot;&gt;Julie Firrelli&lt;/span&gt;&lt;div&gt;&lt;span style=&quot;font-family: sans-serif; font-size: 13.12px; text-align: left; white-space-collapse: preserve; background-color: rgb(248, 249, 250);&quot;&gt;(sales)&lt;/span&gt;&lt;span style=&quot;font-family: sans-serif; font-size: 13.12px; text-align: left; white-space-collapse: preserve; background-color: rgb(248, 249, 250);&quot;&gt;&lt;br&gt;&lt;/span&gt;&lt;/div&gt;" style="rounded=1;whiteSpace=wrap;html=1;" vertex="1" parent="1">
          <mxGeometry x="620" y="340" width="90" height="50" as="geometry" />
        </mxCell>
        <mxCell id="is-eyad1ezGyat-0Gfr9-11" value="&lt;span style=&quot;font-family: sans-serif; font-size: 13.12px; text-align: left; white-space-collapse: preserve; background-color: rgb(248, 249, 250);&quot;&gt;Foon Yue Tseng&lt;/span&gt;&lt;div&gt;&lt;span style=&quot;font-family: sans-serif; font-size: 13.12px; text-align: left; white-space-collapse: preserve; background-color: rgb(248, 249, 250);&quot;&gt;(sales)&lt;/span&gt;&lt;span style=&quot;font-family: sans-serif; font-size: 13.12px; text-align: left; white-space-collapse: preserve; background-color: rgb(248, 249, 250);&quot;&gt;&lt;br&gt;&lt;/span&gt;&lt;/div&gt;" style="rounded=1;whiteSpace=wrap;html=1;" vertex="1" parent="1">
          <mxGeometry x="719" y="410" width="90" height="50" as="geometry" />
        </mxCell>
        <mxCell id="is-eyad1ezGyat-0Gfr9-12" value="&lt;span style=&quot;font-family: sans-serif; font-size: 13.12px; text-align: left; white-space-collapse: preserve; background-color: rgb(248, 249, 250);&quot;&gt;George Vanauf&lt;/span&gt;&lt;div&gt;&lt;span style=&quot;font-family: sans-serif; font-size: 13.12px; text-align: left; white-space-collapse: preserve; background-color: rgb(248, 249, 250);&quot;&gt;(sales)&lt;/span&gt;&lt;span style=&quot;font-family: sans-serif; font-size: 13.12px; text-align: left; white-space-collapse: preserve; background-color: rgb(248, 249, 250);&quot;&gt;&lt;br&gt;&lt;/span&gt;&lt;/div&gt;" style="rounded=1;whiteSpace=wrap;html=1;" vertex="1" parent="1">
          <mxGeometry x="920" y="340" width="90" height="50" as="geometry" />
        </mxCell>
        <mxCell id="is-eyad1ezGyat-0Gfr9-13" value="&lt;div&gt;&lt;span style=&quot;font-family: sans-serif; font-size: 13.12px; text-align: left; white-space-collapse: preserve; background-color: rgb(248, 249, 250);&quot;&gt;Loui Bondur&lt;/span&gt;&lt;/div&gt;&lt;div&gt;&lt;span style=&quot;font-family: sans-serif; font-size: 13.12px; text-align: left; white-space-collapse: preserve; background-color: rgb(248, 249, 250);&quot;&gt;(sales)&lt;/span&gt;&lt;/div&gt;" style="rounded=1;whiteSpace=wrap;html=1;" vertex="1" parent="1">
          <mxGeometry x="200" y="340" width="90" height="50" as="geometry" />
        </mxCell>
        <mxCell id="is-eyad1ezGyat-0Gfr9-14" value="&lt;div&gt;&lt;span style=&quot;font-family: sans-serif; font-size: 13.12px; text-align: left; white-space-collapse: preserve; background-color: rgb(248, 249, 250);&quot;&gt;Gerard Hernandez&lt;/span&gt;&lt;/div&gt;&lt;div&gt;&lt;span style=&quot;font-family: sans-serif; font-size: 13.12px; text-align: left; white-space-collapse: preserve; background-color: rgb(248, 249, 250);&quot;&gt;(sales)&lt;/span&gt;&lt;span style=&quot;font-family: sans-serif; font-size: 13.12px; text-align: left; white-space-collapse: preserve; background-color: rgb(248, 249, 250);&quot;&gt;&lt;br&gt;&lt;/span&gt;&lt;/div&gt;" style="rounded=1;whiteSpace=wrap;html=1;" vertex="1" parent="1">
          <mxGeometry x="400" y="340" width="90" height="50" as="geometry" />
        </mxCell>
        <mxCell id="is-eyad1ezGyat-0Gfr9-15" value="&lt;div&gt;&lt;span style=&quot;font-family: sans-serif; font-size: 13.12px; text-align: left; white-space-collapse: preserve; background-color: rgb(248, 249, 250);&quot;&gt;Larry Bott&lt;/span&gt;&lt;/div&gt;&lt;div&gt;&lt;span style=&quot;font-family: sans-serif; font-size: 13.12px; text-align: left; white-space-collapse: preserve; background-color: rgb(248, 249, 250);&quot;&gt;(sales)&lt;/span&gt;&lt;span style=&quot;font-family: sans-serif; font-size: 13.12px; text-align: left; white-space-collapse: preserve; background-color: rgb(248, 249, 250);&quot;&gt;&lt;br&gt;&lt;/span&gt;&lt;/div&gt;" style="rounded=1;whiteSpace=wrap;html=1;" vertex="1" parent="1">
          <mxGeometry x="500" y="340" width="90" height="50" as="geometry" />
        </mxCell>
        <mxCell id="is-eyad1ezGyat-0Gfr9-16" value="&lt;div&gt;&lt;span style=&quot;font-family: sans-serif; font-size: 13.12px; text-align: left; white-space-collapse: preserve; background-color: rgb(248, 249, 250);&quot;&gt;Pamela Castillo&lt;/span&gt;&lt;/div&gt;&lt;div&gt;&lt;span style=&quot;font-family: sans-serif; font-size: 13.12px; text-align: left; white-space-collapse: preserve; background-color: rgb(248, 249, 250);&quot;&gt;(sales)&lt;/span&gt;&lt;span style=&quot;font-family: sans-serif; font-size: 13.12px; text-align: left; white-space-collapse: preserve; background-color: rgb(248, 249, 250);&quot;&gt;&lt;br&gt;&lt;/span&gt;&lt;/div&gt;" style="rounded=1;whiteSpace=wrap;html=1;" vertex="1" parent="1">
          <mxGeometry x="300" y="340" width="90" height="50" as="geometry" />
        </mxCell>
        <mxCell id="is-eyad1ezGyat-0Gfr9-17" value="&lt;div&gt;&lt;span style=&quot;font-family: sans-serif; font-size: 13.12px; text-align: left; white-space-collapse: preserve; background-color: rgb(248, 249, 250);&quot;&gt;Barry Jones&lt;/span&gt;&lt;/div&gt;&lt;div&gt;&lt;span style=&quot;font-family: sans-serif; font-size: 13.12px; text-align: left; white-space-collapse: preserve; background-color: rgb(248, 249, 250);&quot;&gt;(sales)&lt;/span&gt;&lt;span style=&quot;font-family: sans-serif; font-size: 13.12px; text-align: left; white-space-collapse: preserve; background-color: rgb(248, 249, 250);&quot;&gt;&lt;br&gt;&lt;/span&gt;&lt;/div&gt;" style="rounded=1;whiteSpace=wrap;html=1;" vertex="1" parent="1">
          <mxGeometry x="300" y="410" width="90" height="50" as="geometry" />
        </mxCell>
        <mxCell id="is-eyad1ezGyat-0Gfr9-18" value="&lt;div&gt;&lt;span style=&quot;font-family: sans-serif; font-size: 13.12px; text-align: left; white-space-collapse: preserve; background-color: rgb(248, 249, 250);&quot;&gt;Martin Gerard&lt;/span&gt;&lt;/div&gt;&lt;div&gt;&lt;span style=&quot;font-family: sans-serif; font-size: 13.12px; text-align: left; white-space-collapse: preserve; background-color: rgb(248, 249, 250);&quot;&gt;(sales)&lt;/span&gt;&lt;span style=&quot;font-family: sans-serif; font-size: 13.12px; text-align: left; white-space-collapse: preserve; background-color: rgb(248, 249, 250);&quot;&gt;&lt;br&gt;&lt;/span&gt;&lt;/div&gt;" style="rounded=1;whiteSpace=wrap;html=1;" vertex="1" parent="1">
          <mxGeometry x="400" y="410" width="90" height="50" as="geometry" />
        </mxCell>
        <mxCell id="is-eyad1ezGyat-0Gfr9-19" value="&lt;div&gt;&lt;span style=&quot;background-color: rgb(248, 249, 250); font-family: sans-serif; font-size: 13.12px; text-align: left; white-space-collapse: preserve;&quot;&gt;Andy Fixter&lt;/span&gt;&lt;/div&gt;&lt;div&gt;&lt;span style=&quot;background-color: rgb(248, 249, 250); font-family: sans-serif; font-size: 13.12px; text-align: left; white-space-collapse: preserve;&quot;&gt;(sales)&lt;/span&gt;&lt;br&gt;&lt;/div&gt;" style="rounded=1;whiteSpace=wrap;html=1;" vertex="1" parent="1">
          <mxGeometry x="-140" y="340" width="90" height="50" as="geometry" />
        </mxCell>
        <mxCell id="is-eyad1ezGyat-0Gfr9-20" value="&lt;div&gt;&lt;span style=&quot;font-family: sans-serif; font-size: 13.12px; text-align: left; white-space-collapse: preserve; background-color: rgb(248, 249, 250);&quot;&gt;Peter Marsh&lt;/span&gt;&lt;br&gt;&lt;/div&gt;&lt;div&gt;&lt;span style=&quot;font-family: sans-serif; font-size: 13.12px; text-align: left; white-space-collapse: preserve; background-color: rgb(248, 249, 250);&quot;&gt;(sales)&lt;/span&gt;&lt;span style=&quot;font-family: sans-serif; font-size: 13.12px; text-align: left; white-space-collapse: preserve; background-color: rgb(248, 249, 250);&quot;&gt;&lt;br&gt;&lt;/span&gt;&lt;/div&gt;" style="rounded=1;whiteSpace=wrap;html=1;" vertex="1" parent="1">
          <mxGeometry x="75" y="340" width="90" height="50" as="geometry" />
        </mxCell>
        <mxCell id="is-eyad1ezGyat-0Gfr9-21" value="&lt;div&gt;&lt;span style=&quot;background-color: rgb(248, 249, 250); font-family: sans-serif; font-size: 13.12px; text-align: left; white-space-collapse: preserve;&quot;&gt;Tom King&lt;/span&gt;&lt;/div&gt;&lt;div&gt;&lt;span style=&quot;background-color: rgb(248, 249, 250); font-family: sans-serif; font-size: 13.12px; text-align: left; white-space-collapse: preserve;&quot;&gt;(sales)&lt;/span&gt;&lt;br&gt;&lt;/div&gt;" style="rounded=1;whiteSpace=wrap;html=1;" vertex="1" parent="1">
          <mxGeometry x="-30" y="340" width="90" height="50" as="geometry" />
        </mxCell>
        <mxCell id="is-eyad1ezGyat-0Gfr9-56" value="" style="edgeStyle=orthogonalEdgeStyle;rounded=0;orthogonalLoop=1;jettySize=auto;html=1;" edge="1" parent="1" source="is-eyad1ezGyat-0Gfr9-22" target="is-eyad1ezGyat-0Gfr9-55">
          <mxGeometry relative="1" as="geometry" />
        </mxCell>
        <mxCell id="is-eyad1ezGyat-0Gfr9-22" value="&lt;span style=&quot;font-family: sans-serif; font-size: 13.12px; text-align: left; white-space-collapse: preserve; background-color: rgb(248, 249, 250);&quot;&gt;Mami Nishi&lt;/span&gt;&lt;br&gt;&lt;div&gt;(&amp;nbsp;Sales senior)&lt;/div&gt;" style="whiteSpace=wrap;html=1;rounded=1;shadow=1;labelBackgroundColor=none;strokeWidth=1;fontFamily=Verdana;fontSize=12;align=center;" vertex="1" parent="1">
          <mxGeometry x="1080" y="335" width="120" height="60" as="geometry" />
        </mxCell>
        <mxCell id="is-eyad1ezGyat-0Gfr9-23" style="edgeStyle=orthogonalEdgeStyle;rounded=0;orthogonalLoop=1;jettySize=auto;html=1;entryX=0.418;entryY=-0.014;entryDx=0;entryDy=0;entryPerimeter=0;" edge="1" parent="1" source="62893188c0fa7362-12" target="is-eyad1ezGyat-0Gfr9-19">
          <mxGeometry relative="1" as="geometry" />
        </mxCell>
        <mxCell id="is-eyad1ezGyat-0Gfr9-33" value="" style="endArrow=none;html=1;rounded=0;" edge="1" parent="1">
          <mxGeometry width="50" height="50" relative="1" as="geometry">
            <mxPoint x="240" y="320" as="sourcePoint" />
            <mxPoint x="540" y="320" as="targetPoint" />
            <Array as="points" />
          </mxGeometry>
        </mxCell>
        <mxCell id="is-eyad1ezGyat-0Gfr9-35" value="" style="endArrow=classic;html=1;rounded=0;entryX=0.444;entryY=0;entryDx=0;entryDy=0;entryPerimeter=0;" edge="1" parent="1" target="is-eyad1ezGyat-0Gfr9-13">
          <mxGeometry width="50" height="50" relative="1" as="geometry">
            <mxPoint x="240" y="320" as="sourcePoint" />
            <mxPoint x="460" y="280" as="targetPoint" />
          </mxGeometry>
        </mxCell>
        <mxCell id="is-eyad1ezGyat-0Gfr9-40" value="" style="endArrow=classic;html=1;rounded=0;entryX=0.444;entryY=0;entryDx=0;entryDy=0;entryPerimeter=0;" edge="1" parent="1">
          <mxGeometry width="50" height="50" relative="1" as="geometry">
            <mxPoint x="540" y="320" as="sourcePoint" />
            <mxPoint x="540" y="340" as="targetPoint" />
          </mxGeometry>
        </mxCell>
        <mxCell id="is-eyad1ezGyat-0Gfr9-41" value="" style="endArrow=classic;html=1;rounded=0;entryX=0.444;entryY=0;entryDx=0;entryDy=0;entryPerimeter=0;" edge="1" parent="1">
          <mxGeometry width="50" height="50" relative="1" as="geometry">
            <mxPoint x="444.83" y="320" as="sourcePoint" />
            <mxPoint x="444.83" y="340" as="targetPoint" />
          </mxGeometry>
        </mxCell>
        <mxCell id="is-eyad1ezGyat-0Gfr9-42" value="" style="endArrow=classic;html=1;rounded=0;entryX=0.444;entryY=0;entryDx=0;entryDy=0;entryPerimeter=0;" edge="1" parent="1">
          <mxGeometry width="50" height="50" relative="1" as="geometry">
            <mxPoint x="344.83000000000004" y="320" as="sourcePoint" />
            <mxPoint x="344.83000000000004" y="340" as="targetPoint" />
          </mxGeometry>
        </mxCell>
        <mxCell id="is-eyad1ezGyat-0Gfr9-43" value="" style="endArrow=none;html=1;rounded=0;entryX=0.5;entryY=1;entryDx=0;entryDy=0;exitX=0.5;exitY=0;exitDx=0;exitDy=0;" edge="1" parent="1" source="is-eyad1ezGyat-0Gfr9-18" target="is-eyad1ezGyat-0Gfr9-14">
          <mxGeometry width="50" height="50" relative="1" as="geometry">
            <mxPoint x="400" y="430" as="sourcePoint" />
            <mxPoint x="450" y="380" as="targetPoint" />
          </mxGeometry>
        </mxCell>
        <mxCell id="is-eyad1ezGyat-0Gfr9-44" value="" style="endArrow=none;html=1;rounded=0;entryX=0.5;entryY=1;entryDx=0;entryDy=0;exitX=0.5;exitY=0;exitDx=0;exitDy=0;" edge="1" parent="1">
          <mxGeometry width="50" height="50" relative="1" as="geometry">
            <mxPoint x="344.83" y="410" as="sourcePoint" />
            <mxPoint x="344.83" y="390" as="targetPoint" />
          </mxGeometry>
        </mxCell>
        <mxCell id="is-eyad1ezGyat-0Gfr9-45" value="" style="endArrow=none;html=1;rounded=0;" edge="1" parent="1">
          <mxGeometry width="50" height="50" relative="1" as="geometry">
            <mxPoint x="650" y="320" as="sourcePoint" />
            <mxPoint x="970" y="320" as="targetPoint" />
            <Array as="points" />
          </mxGeometry>
        </mxCell>
        <mxCell id="is-eyad1ezGyat-0Gfr9-46" value="" style="endArrow=classic;html=1;rounded=0;entryX=0.444;entryY=0;entryDx=0;entryDy=0;entryPerimeter=0;" edge="1" parent="1">
          <mxGeometry width="50" height="50" relative="1" as="geometry">
            <mxPoint x="650" y="320" as="sourcePoint" />
            <mxPoint x="650" y="340" as="targetPoint" />
          </mxGeometry>
        </mxCell>
        <mxCell id="is-eyad1ezGyat-0Gfr9-47" value="" style="endArrow=classic;html=1;rounded=0;" edge="1" parent="1">
          <mxGeometry width="50" height="50" relative="1" as="geometry">
            <mxPoint x="970" y="320" as="sourcePoint" />
            <mxPoint x="970" y="340" as="targetPoint" />
          </mxGeometry>
        </mxCell>
        <mxCell id="is-eyad1ezGyat-0Gfr9-48" value="" style="endArrow=classic;html=1;rounded=0;entryX=0.444;entryY=0;entryDx=0;entryDy=0;entryPerimeter=0;" edge="1" parent="1">
          <mxGeometry width="50" height="50" relative="1" as="geometry">
            <mxPoint x="864.8" y="320" as="sourcePoint" />
            <mxPoint x="864.8" y="340" as="targetPoint" />
          </mxGeometry>
        </mxCell>
        <mxCell id="is-eyad1ezGyat-0Gfr9-49" value="" style="endArrow=classic;html=1;rounded=0;entryX=0.444;entryY=0;entryDx=0;entryDy=0;entryPerimeter=0;" edge="1" parent="1">
          <mxGeometry width="50" height="50" relative="1" as="geometry">
            <mxPoint x="763.8000000000001" y="320" as="sourcePoint" />
            <mxPoint x="763.8000000000001" y="340" as="targetPoint" />
          </mxGeometry>
        </mxCell>
        <mxCell id="is-eyad1ezGyat-0Gfr9-50" value="" style="endArrow=none;html=1;rounded=0;entryX=0.5;entryY=1;entryDx=0;entryDy=0;exitX=0.5;exitY=0;exitDx=0;exitDy=0;" edge="1" parent="1">
          <mxGeometry width="50" height="50" relative="1" as="geometry">
            <mxPoint x="763.86" y="410" as="sourcePoint" />
            <mxPoint x="763.86" y="390" as="targetPoint" />
          </mxGeometry>
        </mxCell>
        <mxCell id="is-eyad1ezGyat-0Gfr9-51" value="" style="endArrow=none;html=1;rounded=0;entryX=0.5;entryY=1;entryDx=0;entryDy=0;exitX=0.5;exitY=0;exitDx=0;exitDy=0;" edge="1" parent="1">
          <mxGeometry width="50" height="50" relative="1" as="geometry">
            <mxPoint x="864.86" y="410" as="sourcePoint" />
            <mxPoint x="864.86" y="390" as="targetPoint" />
          </mxGeometry>
        </mxCell>
        <mxCell id="is-eyad1ezGyat-0Gfr9-52" value="" style="endArrow=none;html=1;rounded=0;entryX=0.5;entryY=1;entryDx=0;entryDy=0;exitX=0.5;exitY=0;exitDx=0;exitDy=0;" edge="1" parent="1">
          <mxGeometry width="50" height="50" relative="1" as="geometry">
            <mxPoint x="820" y="320" as="sourcePoint" />
            <mxPoint x="820" y="300" as="targetPoint" />
          </mxGeometry>
        </mxCell>
        <mxCell id="is-eyad1ezGyat-0Gfr9-53" value="" style="endArrow=none;html=1;rounded=0;entryX=0.5;entryY=1;entryDx=0;entryDy=0;exitX=0.5;exitY=0;exitDx=0;exitDy=0;" edge="1" parent="1">
          <mxGeometry width="50" height="50" relative="1" as="geometry">
            <mxPoint x="400" y="320" as="sourcePoint" />
            <mxPoint x="400" y="300" as="targetPoint" />
          </mxGeometry>
        </mxCell>
        <mxCell id="is-eyad1ezGyat-0Gfr9-55" value="Yoshimi Kato&lt;div&gt;(&amp;nbsp;Sales Rep )&lt;/div&gt;" style="whiteSpace=wrap;html=1;fontFamily=Verdana;rounded=1;shadow=1;labelBackgroundColor=none;strokeWidth=1;" vertex="1" parent="1">
          <mxGeometry x="1080" y="425" width="120" height="60" as="geometry" />
        </mxCell>
      </root>
    </mxGraphModel>
  </diagram>
</mxfile>
